<svg width="14" height="14" viewBox="0 0 14 14" fill="none" xmlns="http://www.w3.org/2000/svg">
<path fill-rule="evenodd" clip-rule="evenodd" d="M12.3423 7.06056C12.3276 7.01119 12.3227 6.96182 12.3227 6.91245C12.3227 6.86308 12.3276 6.81371 12.3423 6.76434L12.8263 5.19439C12.8556 5.08084 12.8556 4.96235 12.8214 4.85374C12.7872 4.74019 12.7187 4.64639 12.6258 4.57727L11.3205 3.58988C11.2814 3.56026 11.2471 3.5257 11.2178 3.48127C11.1885 3.44177 11.164 3.39733 11.1494 3.34797L10.6262 1.79776C10.5871 1.68421 10.5187 1.59041 10.4258 1.52129C10.328 1.45218 10.2155 1.41268 10.1031 1.41268L8.47506 1.38799C8.42617 1.38799 8.37729 1.37812 8.3284 1.36331C8.2844 1.3485 8.2355 1.32381 8.19639 1.29419L6.86657 0.351238C6.77368 0.282121 6.66123 0.247559 6.54389 0.247559C6.42656 0.247559 6.31412 0.282121 6.22123 0.351238L4.89142 1.29419C4.8523 1.32381 4.8034 1.3485 4.7594 1.36331C4.71051 1.37812 4.66163 1.38799 4.61274 1.38799L2.98469 1.41268C2.87224 1.41268 2.75979 1.45218 2.66201 1.52129C2.56912 1.59041 2.50068 1.68421 2.46157 1.79776L1.93844 3.34797C1.92378 3.39733 1.89932 3.44177 1.86999 3.48127C1.84065 3.5257 1.80643 3.56026 1.76243 3.58988L0.461948 4.57727C0.369057 4.64639 0.300613 4.74019 0.26639 4.85374C0.232167 4.96235 0.232167 5.08084 0.26639 5.19439L0.74552 6.76434C0.755298 6.81371 0.76508 6.86308 0.76508 6.91245C0.76508 6.96182 0.755298 7.01119 0.74552 7.06056L0.26639 8.6305C0.232167 8.74405 0.232167 8.86254 0.26639 8.97116C0.300613 9.08471 0.369057 9.17851 0.461948 9.25257L1.76243 10.235C1.80643 10.2646 1.84065 10.2992 1.86999 10.3436C1.89932 10.3831 1.92378 10.4276 1.93844 10.4769L2.46157 12.0271C2.50068 12.1407 2.56912 12.2345 2.66201 12.3036C2.75979 12.3727 2.87224 12.4122 2.98469 12.4122L4.61274 12.4369C4.66163 12.4369 4.71051 12.4468 4.7594 12.4616C4.8034 12.4764 4.8523 12.5011 4.89142 12.5307L6.22123 13.4737C6.31412 13.5428 6.42656 13.5773 6.54389 13.5773C6.66123 13.5773 6.77368 13.5428 6.86657 13.4737L8.19639 12.5307C8.2355 12.5011 8.2844 12.4764 8.3284 12.4616C8.37729 12.4468 8.42617 12.4369 8.47506 12.4369L10.1031 12.4122C10.2155 12.4122 10.328 12.3727 10.4258 12.3036C10.5187 12.2345 10.5871 12.1407 10.6262 12.0271L11.1494 10.4769C11.164 10.4276 11.1885 10.3831 11.2178 10.3436C11.2471 10.2992 11.2814 10.2646 11.3205 10.235L12.6258 9.25257C12.7187 9.17851 12.7872 9.08471 12.8214 8.97116C12.8556 8.86254 12.8556 8.74405 12.8263 8.6305L12.3423 7.06056ZM6.54389 11.6026C3.98205 11.6026 1.89932 9.49941 1.89932 6.91245C1.89932 4.32548 3.98205 2.22234 6.54389 2.22234C9.10574 2.22234 11.1885 4.32548 11.1885 6.91245C11.1885 9.49941 9.10574 11.6026 6.54389 11.6026Z" fill="white"/>
<path d="M6.54336 13.8241C6.37714 13.8241 6.21581 13.7723 6.08136 13.676L4.75155 12.7306C4.73199 12.7157 4.70754 12.7034 4.68554 12.696C4.6611 12.6886 4.63421 12.6837 4.61221 12.6837L2.98416 12.659C2.81793 12.6565 2.65659 12.6022 2.52459 12.5035C2.39014 12.4047 2.28992 12.2689 2.23614 12.1085L1.71058 10.5558C1.7008 10.5311 1.69102 10.5065 1.67635 10.4867C1.66168 10.467 1.64212 10.4472 1.62256 10.4324L0.324527 9.44748C0.192523 9.34627 0.0923046 9.20804 0.0409699 9.04759C-0.0103649 8.88713 -0.0128142 8.71681 0.0360761 8.55636L0.515206 6.98641C0.522539 6.96172 0.527425 6.93457 0.527425 6.90988C0.527425 6.8852 0.522539 6.85805 0.515206 6.83583L0.0360761 5.26588C-0.0128142 5.10543 -0.0128094 4.9351 0.0409699 4.77465C0.0923046 4.6142 0.190078 4.47597 0.324527 4.37476L1.62501 3.38984C1.64456 3.37503 1.66413 3.35528 1.6788 3.33306C1.69346 3.31331 1.70324 3.2911 1.71302 3.26642L2.23858 1.71374C2.29236 1.55329 2.39259 1.41752 2.52703 1.31878C2.66148 1.22004 2.82038 1.16574 2.9866 1.16327L4.61221 1.13858C4.63665 1.13858 4.66354 1.13365 4.68799 1.12624C4.71243 1.11884 4.73444 1.1065 4.75399 1.09169L6.08379 0.146257C6.35758 -0.0487524 6.73649 -0.0487524 7.01027 0.146257L8.34009 1.09169C8.35964 1.1065 8.38408 1.11884 8.40608 1.12624C8.43053 1.13365 8.45743 1.13858 8.47943 1.13858L10.1075 1.16327C10.2737 1.16574 10.435 1.22004 10.567 1.31878C10.7015 1.41752 10.8017 1.55329 10.8555 1.71374L11.3811 3.26642C11.3908 3.2911 11.4006 3.31332 11.4153 3.33553C11.43 3.35775 11.4495 3.37503 11.4691 3.38984L12.7671 4.37476C12.8991 4.47597 12.9993 4.6142 13.0507 4.77465C13.102 4.9351 13.1044 5.10543 13.0555 5.26588L12.5764 6.83583C12.5691 6.86052 12.5642 6.88767 12.5642 6.91235C12.5642 6.93704 12.5691 6.96419 12.5764 6.98641L13.0555 8.55636C13.1044 8.71681 13.1044 8.88713 13.0507 9.04759C12.9993 9.20804 12.9015 9.34627 12.7671 9.44748L11.4666 10.4324C11.4471 10.4472 11.4275 10.467 11.4128 10.4892C11.4006 10.5065 11.3884 10.5311 11.3786 10.5558L10.853 12.1085C10.7993 12.2689 10.699 12.4047 10.5646 12.5035C10.4301 12.6022 10.2712 12.6565 10.105 12.659L8.47943 12.6837C8.45498 12.6837 8.42809 12.6886 8.40365 12.696C8.3792 12.7034 8.3572 12.7157 8.33764 12.7306L7.00783 13.676C6.87093 13.7723 6.70959 13.8241 6.54336 13.8241ZM6.36247 0.553554L5.03266 1.49899C4.97154 1.54095 4.90554 1.57551 4.83465 1.59772C4.76376 1.62241 4.68799 1.63475 4.61466 1.63475L2.98905 1.65944C2.92305 1.65944 2.85949 1.68165 2.80816 1.72115C2.75438 1.76064 2.71526 1.81495 2.69571 1.87666L2.17014 3.4318C2.1457 3.50339 2.11147 3.57004 2.06746 3.62928C2.02346 3.69099 1.97213 3.74283 1.91346 3.78726L0.610545 4.77218C0.55921 4.81168 0.520093 4.86599 0.498092 4.93017C0.478536 4.99188 0.476089 5.05853 0.495645 5.12271L0.974775 6.69266C0.996776 6.76424 1.009 6.8383 1.009 6.91483C1.009 6.99135 0.996776 7.0654 0.974775 7.13699L0.495645 8.70693C0.476089 8.77111 0.476092 8.83776 0.498092 8.89947C0.517648 8.96366 0.556766 9.01797 0.610545 9.05746L1.91103 10.0424C1.9697 10.0893 2.02348 10.1411 2.06503 10.2004C2.10903 10.2621 2.14325 10.3287 2.1677 10.3978L2.69326 11.953C2.71526 12.0172 2.75438 12.069 2.80571 12.1085C2.85705 12.148 2.92305 12.1677 2.9866 12.1702L4.61221 12.1949C4.6831 12.1949 4.75888 12.2072 4.82977 12.2319C4.90066 12.2541 4.96667 12.2887 5.02778 12.3331L6.35759 13.2786C6.46515 13.3551 6.61426 13.3551 6.72182 13.2786L8.05164 12.3331C8.11275 12.2912 8.17875 12.2566 8.24964 12.2344C8.32053 12.2097 8.3963 12.1974 8.46964 12.1974L10.0952 12.1727C10.1612 12.1727 10.2248 12.1505 10.2761 12.111C10.3299 12.0715 10.369 12.0172 10.3886 11.9555L10.9142 10.4003C10.9386 10.3287 10.9728 10.2621 11.0168 10.2028C11.0608 10.1411 11.1122 10.0893 11.1708 10.0449L12.4738 9.05993C12.5251 9.02044 12.5642 8.96613 12.5862 8.90195C12.6058 8.84023 12.6082 8.77359 12.5887 8.7094L12.1095 7.13946C12.0875 7.06787 12.0753 6.99381 12.0753 6.91729C12.0753 6.84077 12.0875 6.76671 12.1095 6.69513L12.5887 5.12518C12.6082 5.061 12.6082 4.99435 12.5862 4.93264C12.5666 4.86846 12.5275 4.81415 12.4738 4.77465L11.1733 3.78973C11.1146 3.74283 11.0608 3.69099 11.0193 3.63175C10.9753 3.57003 10.941 3.50339 10.9166 3.4318L10.391 1.87913C10.369 1.81495 10.3299 1.76311 10.2786 1.72362C10.2272 1.68412 10.1613 1.66437 10.0977 1.66191L8.47209 1.63722C8.4012 1.63722 8.32541 1.62488 8.25452 1.60019C8.18363 1.57798 8.11763 1.54342 8.05652 1.49899L6.7267 0.553554C6.61914 0.477032 6.47003 0.477032 6.36247 0.553554ZM6.54336 11.8493C3.84707 11.8493 1.65434 9.63508 1.65434 6.91235C1.65434 4.18962 3.84707 1.9754 6.54336 1.9754C9.23966 1.9754 11.4324 4.18962 11.4324 6.91235C11.4324 9.63508 9.23966 11.8493 6.54336 11.8493ZM6.54336 2.4691C4.11596 2.4691 2.14324 4.46116 2.14324 6.91235C2.14324 9.36355 4.11596 11.3556 6.54336 11.3556C8.97076 11.3556 10.9435 9.36355 10.9435 6.91235C10.9435 4.46116 8.97076 2.4691 6.54336 2.4691ZM5.32111 6.17181C4.78087 6.17181 4.3433 5.72995 4.3433 5.18442C4.3433 4.63889 4.78087 4.19703 5.32111 4.19703C5.86135 4.19703 6.29891 4.63889 6.29891 5.18442C6.29891 5.72995 5.86135 6.17181 5.32111 6.17181ZM5.32111 4.69072C5.05221 4.69072 4.83221 4.91289 4.83221 5.18442C4.83221 5.45595 5.05221 5.67812 5.32111 5.67812C5.59 5.67812 5.81001 5.45595 5.81001 5.18442C5.81001 4.91289 5.59245 4.69072 5.32111 4.69072ZM7.76562 9.62768C7.22538 9.62768 6.78782 9.18582 6.78782 8.64029C6.78782 8.09475 7.22538 7.6529 7.76562 7.6529C8.30586 7.6529 8.74342 8.09475 8.74342 8.64029C8.74342 9.18582 8.30586 9.62768 7.76562 9.62768ZM7.76562 8.14659C7.49672 8.14659 7.27672 8.36876 7.27672 8.64029C7.27672 8.91182 7.49672 9.13398 7.76562 9.13398C8.03452 9.13398 8.25452 8.91182 8.25452 8.64029C8.25452 8.36876 8.03696 8.14659 7.76562 8.14659ZM5.02533 9.28456L8.44765 4.8413C8.53076 4.73269 8.51121 4.57964 8.40365 4.49571C8.29853 4.41178 8.14452 4.43154 8.06141 4.54015L4.63909 8.98341C4.55598 9.09202 4.57554 9.24507 4.68309 9.329C4.7271 9.36355 4.78087 9.38083 4.83221 9.38083C4.90554 9.38083 4.97644 9.34874 5.02533 9.28456Z" fill="black"/>
</svg>
