<svg width="12" height="12" viewBox="0 0 12 12" fill="none" xmlns="http://www.w3.org/2000/svg">
<path d="M11.796 4.36C11.7812 4.49296 11.7152 4.61493 11.612 4.7L9.039 7.209L9.648 10.753C9.65359 10.8001 9.65592 10.8476 9.655 10.895C9.65805 10.9848 9.6321 11.0731 9.581 11.147C9.53019 11.2148 9.44858 11.2524 9.364 11.247C9.26385 11.2439 9.16626 11.2146 9.081 11.162L5.898 9.489L2.715 11.162C2.62923 11.2135 2.53194 11.2427 2.432 11.247C2.34556 11.2534 2.26171 11.2158 2.209 11.147C2.15741 11.0733 2.1311 10.9849 2.134 10.895C2.13559 10.8474 2.14026 10.8 2.148 10.753L2.757 7.209L0.177 4.7C0.0784075 4.61212 0.0154372 4.49117 0 4.36C0 4.18533 0.133333 4.07667 0.4 4.034L3.958 3.516L5.552 0.291C5.642 0.097 5.758 0 5.9 0C6.042 0 6.15767 0.097 6.247 0.291L7.842 3.516L11.4 4.034C11.664 4.07667 11.796 4.18533 11.796 4.36Z" fill="#F8C1B8"/>
</svg>
